<svg xmlns="http://www.w3.org/2000/svg" viewBox="0 0 1125 250">
  <path
        d="M113.13,19.63a104,104,0,0,1,49.31,12.68c7.87,4.29,10.16,10.87,6.34,17.73-3.62,6.5-10.58,8.07-18.15,4.09-31.25-16.44-66.33-11.85-92,12-66.42,66.68,14,170.75,95.28,123.76,7.44-4.37,14.3-3.23,18.3,3.1s1.92,13.74-5.32,18.27c-62.43,39-147.29-1.24-156.65-74.29C1.76,75.11,50.74,19.53,113.13,19.63Z" />
  <g>
    <path
          d="M212.35,123.15q0,44,0,87.93c0,8.73-4.75,14.18-12.41,14.27-7.81.09-12.57-5.14-12.57-14.08q0-88.17,0-176.35c0-7,2.63-11.34,7.72-13.24s11.49-.62,14.41,3.82a17.94,17.94,0,0,1,2.74,9.23C212.43,64.2,212.35,93.68,212.35,123.15Z" />
    <path
          d="M319.35,111c0-25.55,0-50.81,0-76.33,0-8.45,4.71-13.59,12.42-13.67,7.87-.08,12.55,4.83,12.56,13.46q0,88.68,0,177.36c0,8.46-4.94,13.62-12.61,13.51-7.5-.11-12.36-5.51-12.37-13.83,0-25.5,0-50.61,0-76.17-26.21,0-52.29,0-78.48,0a11.73,11.73,0,0,1-11.46-8c-2.63-9.5,3.64-16.5,13.11-16.25C268.21,111,293.64,111,319.35,111Z" />
  </g>
  <path
        d="M495.62,146.31c-12.89-27.6-25.44-54.5-38.45-82.38-22.86,51.35-45.05,101.37-67.68,152.59-6.12,16.18-30.6,8.46-23.33-8.78,26.07-59.19,52.6-118.2,78.85-177.31,3.16-7.1,8.25-9.84,15-8.31,4.49,1,6.94,4.07,8.8,8.07C496.41,89.43,524.3,148.53,551.8,207.8c2.6,5.76,1.48,11-2.64,14.55s-10.52,4.56-14.81,1.44a19.83,19.83,0,0,1-5.74-7.27q-9.83-20.46-19.11-41.17c-1.36-3-3-4.12-6.34-4.08-16.82.18-33.65.15-50.47,0-7.83-.05-12.7-4.45-13.16-11.42-.5-7.65,4.71-13.11,12.92-13.18C467,146.35,481.08,147.21,495.62,146.31Z" />
  <g>
    <path d="M646.4,49.33a81,81,0,0,1,55.87-.24l17.46-30.24a115.63,115.63,0,0,0-90.77.28Z" fill="#1c9bd6" />
    <path d="M743.87,32.79,726.41,63a80.68,80.68,0,0,1,27.87,48.52h34.88A115.16,115.16,0,0,0,743.87,32.79Z"
          fill="#6ac7b9" />
    <path d="M754.11,139.4a80.73,80.73,0,0,1-131.34,47.47L596,209.3a115.29,115.29,0,0,0,193-69.9Z" fill="#bf9cc9" />
    <path d="M604.83,165.54A80.68,80.68,0,0,1,622.38,63.47L604.91,33.2A115.3,115.3,0,0,0,578.09,188Z" fill="#d61d5f" />
  </g>
  <path
        d="M882.87,18.7C917.77,18.21,950,33.75,956,70.88a12.26,12.26,0,0,1-9.7,14.19c-6.82,1.25-13.68-2.88-14.82-9.49C928.66,59,918.66,49.36,902.62,45.76c-20-4.77-47.87-3.95-61.45,13.9-6.07,8.58-6,20.42,1.7,27.5a67.31,67.31,0,0,0,19.36,12.78c16.27,6.73,33.07,12.19,49.6,18.3,11.68,4.32,22.24,10.47,31,19.54,36.27,39.34-6.29,90-52,89.81C852.26,231,811,206.15,812.2,163.92c0-7.81,5.1-13.36,12.28-13.5,7-.14,12.06,5.44,12.81,13.26.49,5.23,1.17,10.68,3.12,15.48,4.84,11.89,14.77,18.07,26.73,21.23,18.57,4.91,36.33,4.09,52.09-8.42,13.2-10.18,17.78-29.09,2.55-39.3-21.63-14.26-47.47-20.72-71.21-30.6a92.78,92.78,0,0,1-20.37-12.39C804,89.14,807.5,52.45,831.3,34.13,846.53,22.4,864.07,18.44,882.87,18.7Z" />
  <path
        d="M1044.87,18.76c32.25,0,63.25,14.83,70.2,50.08,1.82,8.12-2.35,14.89-9.35,16.21-7.77,1.46-13.42-3.18-15.35-11.86-2.39-10.78-7.94-19.61-18.51-23.9-21.52-9-50.76-9.48-68.66,7.38-9.39,9.18-9.7,23.38.33,31.87,19.29,15.87,45.07,20.07,67.5,29.86a114.88,114.88,0,0,1,26.28,15c25,19.6,22.8,51.9,3.69,71.73-16.76,17.38-37.6,23.76-61.22,22.46-36.29-1-69.52-26.12-68.38-64.6a12.42,12.42,0,0,1,12.31-12.59c6.3-.17,12.61,4.91,12.51,11.18-.38,22.8,14.07,36,35.47,40.13,17.23,3.3,33.56,1.43,47.62-10.27,17.73-14.82,13.15-33.27-4.18-43.1-9.85-5.08-20.36-8.91-30.65-13.12-14.6-6-29.63-11-43.78-17.94-12.85-6.25-23-16.16-27.29-30.42C961.27,43.52,1003.5,16.16,1044.87,18.76Z" />
</svg>
