<svg version="1.1" xmlns="http://www.w3.org/2000/svg" viewBox="0 0 255 255">
<g opacity="0.5">
	<path d="M99.6,61.8c18-6.7,37.8-6.8,55.9-0.2L173,31.4c-29-12.3-61.8-12.2-90.8,0.3L99.6,61.8z"/>
	<path d="M197.1,45.3l-17.5,30.2c14.8,12.3,24.7,29.5,27.9,48.5h34.9C238.7,92.7,222.4,64.2,197.1,45.3z"/>
	<path d="M207.4,151.9c-7.9,43.9-49.9,73-93.8,65.1c-13.8-2.5-26.8-8.6-37.5-17.6l-26.8,22.4
		c46.6,43.4,119.5,40.9,162.9-5.7c16.5-17.7,27-40.2,30.1-64.2H207.4z"/>
	<path d="M58.1,178.1C38.4,144.3,45.8,101.3,75.6,76L58.2,45.7C10,82.3-1.7,149.9,31.3,200.5L58.1,178.1z"/>
</g>
<g>
	<path fill="#1C9BD6" d="M99.6,51.8c18-6.7,37.8-6.8,55.9-0.2L173,21.4c-29-12.3-61.8-12.2-90.8,0.3L99.6,51.8z"/>
	<path fill="#6AC7B9" d="M197.1,35.3l-17.5,30.2c14.8,12.3,24.7,29.5,27.9,48.5h34.9C238.7,82.7,222.4,54.2,197.1,35.3z"/>
	<path fill="#BF9CC9" d="M207.4,141.9c-7.9,43.9-49.9,73-93.8,65.1c-13.8-2.5-26.8-8.6-37.5-17.6l-26.8,22.4
		c46.6,43.4,119.5,40.9,162.9-5.7c16.5-17.7,27-40.2,30.1-64.2H207.4z"/>
	<path fill="#D61D5F" d="M58.1,168.1C38.4,134.3,45.8,91.3,75.6,66L58.2,35.7C10,72.3-1.7,139.9,31.3,190.5L58.1,168.1z"/>
</g>
</svg>
